# xmcd
#
# Track frame offsets: 
#        150
#        18133
#        38148
#        56107
#        71700
#        88306
#
# Disc length: 1423 seconds
#
# Revision: 0
# Processed by: cddbd v1.5.2PL0 Copyright (c) Steve Scherf et al.
# Submitted via: ExactAudioCopy v0.99pb3
#
DISCID=4d058d06
DTITLE=Kel Stoner - Kel Stoner
DYEAR=2008
DGENRE=blues
TTITLE0=Lull Me To Sleep
TTITLE1=Long Long Road
TTITLE2=Make Me Blue
TTITLE3=Burnin Track
TTITLE4=Bless You Sista
TTITLE5=Silvergreen
EXTD=
EXTT0=
EXTT1=
EXTT2=
EXTT3=
EXTT4=
EXTT5=
PLAYORDER=
